<?xml version="1.0" encoding="UTF-8"?>
<svg id="Calque_1" data-name="Calque 1" xmlns="http://www.w3.org/2000/svg" width="197.8" height="197.8" viewBox="0 0 197.8 197.8">
  <defs>
    <style>
      .cls-1 {
        stroke: #000;
        stroke-miterlimit: 10;
        stroke-width: .5px;
      }

      .cls-2 {
        isolation: isolate;
      }
    </style>
  </defs>
  <g id="circle">
    <g class="cls-2">
      <path class="cls-1" d="M170.49,130.2l13.4,7.6-.5,.8-14.3,.1,.2-.4,7.2,12.3-.5,.8-13.2-7.6,.5-1,11.9,6.7-.2,.3-6.8-11.6,.3-.5,13.5-.2-.2,.3-11.9-6.8,.6-.8Z"/>
    </g>
    <g class="cls-2">
      <path class="cls-1" d="M161.59,145.4l6.6,15.6-.8,.8-16.2-5.1,.8-.9,15.4,4.9-.3,.4-6.3-14.8,.8-.9Zm1.4,4.9l.4,.9-6.2,6.8-1-.4,6.8-7.3Z"/>
    </g>
    <g class="cls-2">
      <path class="cls-1" d="M147.69,159.3l8.9,11.3,4.3-3.4,.6,.8-9.6,7.6-.6-.8,4.3-3.4-8.8-11.4,.9-.7Z"/>
    </g>
    <g class="cls-2">
      <path class="cls-1" d="M137.79,166.1l7.1,12.5,4.8-2.7,.5,.9-10.6,6-.5-.9,4.8-2.7-7.1-12.5,1-.6Z"/>
    </g>
    <g class="cls-2">
      <path class="cls-1" d="M129.29,171.5l-8.9,3.3-.3-.9,10-3.6,5.3,14.5-9.7,3.5-.3-1,8.6-3.1-4.7-12.7Zm2.6,6.8l-7.8,2.9-.3-.9,7.8-2.9,.3,.9Z"/>
    </g>
    <g class="cls-2">
      <path class="cls-1" d="M110.39,175.5c1.1-.2,2.2-.1,3.2,.1,1,.2,1.9,.7,2.8,1.3s1.5,1.3,2,2.2,.9,1.9,1,3c.2,1.1,.1,2.2-.1,3.1-.3,1-.7,1.9-1.3,2.7-.6,.8-1.4,1.5-2.3,2s-1.9,.9-3.1,1-2.2,.1-3.2-.1c-1-.2-1.9-.7-2.8-1.3-.8-.6-1.5-1.3-2-2.2s-.9-1.9-1.1-3-.1-2.2,.1-3.2c.3-1,.7-1.9,1.3-2.7,.6-.8,1.4-1.5,2.3-2,1-.4,2-.7,3.2-.9Zm.1,1.1c-1,.1-1.8,.4-2.6,.9-.8,.5-1.4,1-1.9,1.7s-.9,1.5-1.1,2.3c-.2,.9-.3,1.8-.1,2.7,.1,1,.4,1.8,.9,2.6s1,1.4,1.7,1.9,1.5,.9,2.4,1.1c.9,.2,1.8,.2,2.8,.1s1.8-.4,2.6-.9c.8-.5,1.4-1,2-1.7,.5-.7,.9-1.5,1.1-2.3,.2-.9,.3-1.8,.1-2.7-.1-1-.4-1.8-.9-2.6s-1-1.4-1.8-1.9c-.7-.5-1.5-.9-2.4-1.1-.9-.3-1.8-.3-2.8-.1Z"/>
    </g>
    <g class="cls-2">
      <path class="cls-1" d="M86.49,175.5c1.1,.1,2.2,.5,3.1,1s1.7,1.2,2.3,2c.6,.8,1.1,1.7,1.3,2.7,.3,1,.3,2,.2,3.2-.1,1.1-.5,2.1-1,3s-1.2,1.6-2,2.2c-.8,.6-1.7,1-2.7,1.3s-2.1,.3-3.2,.2-2.1-.4-3-.9-1.6-1.1-2.2-1.9l.8-.6c.6,.7,1.2,1.3,2,1.7s1.6,.6,2.5,.8c1,.1,1.9,.1,2.8-.1,.9-.2,1.7-.6,2.4-1.1,.7-.5,1.3-1.2,1.7-1.9,.4-.8,.7-1.6,.9-2.6,.1-1,.1-1.9-.2-2.7-.2-.9-.6-1.6-1.2-2.3-.5-.7-1.2-1.3-2-1.7s-1.7-.7-2.6-.9c-.9-.1-1.7-.1-2.6,.1s-1.6,.6-2.4,1.1l-.6-1.1c.8-.6,1.6-1.1,2.6-1.3,1-.3,2-.3,3.1-.2Z"/>
    </g>
    <g class="cls-2">
      <path class="cls-1" d="M72.89,171.9c1.1,.4,2,.9,2.8,1.6,.8,.7,1.4,1.5,1.8,2.4s.7,1.9,.7,2.9c.1,1-.1,2.1-.5,3.1s-.9,2-1.6,2.7c-.7,.8-1.5,1.3-2.4,1.8-.9,.4-1.9,.7-3,.7-1,0-2.1-.1-3.2-.5s-2-.9-2.8-1.6c-.8-.7-1.4-1.5-1.8-2.4-.4-.9-.7-1.9-.8-2.9s.1-2.1,.5-3.1c.4-1.1,.9-2,1.6-2.7,.7-.8,1.5-1.3,2.4-1.8,.9-.4,1.9-.6,2.9-.7,1.2-.1,2.3,.1,3.4,.5Zm-.4,.9c-.9-.3-1.8-.5-2.7-.4-.9,0-1.7,.2-2.5,.6-.8,.4-1.5,.9-2.1,1.5-.6,.7-1.1,1.4-1.4,2.4-.3,.9-.5,1.8-.4,2.7s.3,1.7,.6,2.5c.4,.8,.9,1.5,1.6,2.1s1.5,1.1,2.4,1.4c.9,.3,1.8,.5,2.7,.4,.9,0,1.7-.2,2.5-.6,.8-.4,1.5-.9,2.1-1.5,.6-.7,1.1-1.4,1.4-2.4,.3-.9,.5-1.8,.4-2.7,0-.9-.3-1.7-.6-2.5-.4-.8-.9-1.5-1.6-2.1-.7-.6-1.5-1-2.4-1.4Z"/>
    </g>
    <g class="cls-2">
      <path class="cls-1" d="M57.19,164.2c1.6,1,2.6,2.3,2.9,3.8,.3,1.5-.1,3.2-1.3,5.1l-4.8,7.5-.9-.6,4.8-7.4c1-1.6,1.4-3.1,1.2-4.3-.2-1.3-1-2.3-2.4-3.2-1.3-.9-2.6-1.1-3.9-.8-1.2,.3-2.4,1.3-3.4,2.9l-4.8,7.4-.9-.6,4.8-7.5c1.2-1.9,2.5-3,4.1-3.3s3-.1,4.6,1Z"/>
    </g>
    <g class="cls-2">
      <path class="cls-1" d="M48.19,157.8l-10.8,11-3.9-3.9c-.9-.9-1.6-1.8-1.9-2.8-.4-.9-.5-1.9-.3-2.8,.2-.9,.7-1.7,1.4-2.5,.8-.8,1.6-1.2,2.5-1.4s1.8-.1,2.8,.2c1,.4,1.9,1,2.8,1.9l3.5,3.4h-.7l3.9-4,.7,.9Zm-4.7,3.1v.7l-3.5-3.4c-1.2-1.2-2.3-1.8-3.5-1.9-1.1-.1-2.2,.3-3.1,1.3-.9,1-1.4,2-1.3,3.1s.7,2.3,1.9,3.4l3.5,3.4h-.7l6.7-6.6Zm-2.9-10.6l-1.1,6.8-.9-.9,1.1-6.8,.9,.9Z"/>
    </g>
    <g class="cls-2">
      <path class="cls-1" d="M33.99,141.1c.6,1,1,2,1.2,3s.2,2,0,3-.6,1.9-1.2,2.8c-.6,.8-1.3,1.6-2.3,2.2-.9,.6-1.9,1-2.9,1.2s-2,.2-3-.1-1.9-.6-2.8-1.2c-.9-.6-1.6-1.4-2.2-2.3-.6-1-1-2-1.2-3s-.2-2,0-3,.6-1.9,1.2-2.8c.6-.9,1.3-1.6,2.3-2.2,.9-.6,1.9-1,2.9-1.2s2-.2,3,.1c1,.2,1.9,.6,2.8,1.2,.8,.6,1.5,1.3,2.2,2.3Zm-.9,.6c-.5-.8-1.2-1.5-1.9-2s-1.5-.9-2.4-1c-.9-.2-1.7-.2-2.6,0-.9,.2-1.7,.5-2.5,1s-1.5,1.2-2,1.9-.8,1.5-1,2.4-.2,1.7,0,2.6c.2,.9,.5,1.7,1.1,2.6,.5,.8,1.2,1.5,1.9,2s1.5,.9,2.4,1.1,1.7,.2,2.6,0c.9-.2,1.7-.5,2.5-1s1.5-1.2,2-1.9,.8-1.5,1-2.4,.2-1.7,0-2.6c-.2-1.1-.6-1.9-1.1-2.7Zm.5-6.4c.2,.4,.4,.8,.6,1.2,.1,.4,.2,.9,.2,1.4s0,1-.1,1.6-.2,1.2-.4,2l-1-.9c.2-.7,.3-1.3,.4-1.9,.1-.6,0-1.1-.1-1.6s-.3-.9-.5-1.2c-.7-1-1.6-1.6-2.9-1.7l.2-.9c1.6,.1,2.7,.8,3.6,2Z"/>
    </g>
    <g class="cls-2">
      <path class="cls-1" d="M26.09,125.5c.7,1.8,.6,3.4,0,4.8s-2,2.5-4.1,3.3l-8.3,3.1-.4-1.1,8.3-3c1.8-.7,3-1.6,3.6-2.7,.6-1.1,.6-2.5,0-4-.5-1.5-1.4-2.5-2.6-3-1.2-.5-2.7-.4-4.5,.2l-8.3,3-.4-1.1,8.3-3c2.1-.8,3.8-.8,5.2-.2,1.5,.7,2.6,1.9,3.2,3.7Z"/>
    </g>
    <g class="cls-2">
      <path class="cls-1" d="M22.89,114.7l-15.1,3-.2-1.1,15.1-3,.2,1.1Z"/>
    </g>
    <g class="cls-2">
      <path class="cls-1" d="M21.69,108.5l-15.4,.7v-.9l13.5-11.7v.5l-14,.6v-1.1l15.4-.7v.9l-13.5,11.6v-.5l14-.6v1.2Z"/>
    </g>
    <g class="cls-2">
      <path class="cls-1" d="M18.19,83.3c0,.2-.1,.5-.3,.6-.2,.2-.3,.3-.6,.4-.2,.1-.5,.1-.7,0-.2,0-.5-.2-.6-.3-.2-.2-.3-.4-.4-.6-.1-.2-.1-.5,0-.7,0-.2,.1-.5,.3-.6,.2-.2,.3-.3,.6-.4,.2-.1,.5-.1,.7-.1,.3,0,.5,.2,.7,.3,.2,.2,.3,.4,.4,.6-.1,.3-.1,.5-.1,.8Z"/>
    </g>
    <g class="cls-2">
      <path class="cls-1" d="M25.39,73.1l-14.1-6.3,2.5-5.6c.7-1.5,1.5-2.7,2.7-3.5,1.1-.9,2.3-1.4,3.7-1.5,1.3-.2,2.7,.1,4.1,.7,1.4,.6,2.4,1.5,3.2,2.6s1.2,2.3,1.3,3.7-.2,2.8-.8,4.3l-2.6,5.6Zm-.5-1.5l2-4.5c.6-1.3,.8-2.6,.8-3.8-.1-1.2-.5-2.3-1.1-3.2-.7-.9-1.6-1.7-2.8-2.2s-2.4-.7-3.5-.6c-1.2,.1-2.2,.6-3.2,1.3s-1.7,1.8-2.3,3.1l-2,4.5,12.1,5.4Z"/>
    </g>
    <g class="cls-2">
      <path class="cls-1" d="M33.09,55.6l5.6-7.7,.8,.6-6.2,8.6-12.5-9.1,6-8.3,.8,.6-5.4,7.4,10.9,7.9Zm-6-4.2l4.9-6.8,.8,.6-4.9,6.8-.8-.6Z"/>
    </g>
    <g class="cls-2">
      <path class="cls-1" d="M45.09,42.8l-15.6-6.5,.9-.8,14.9,6.2-.5,.5-5.4-15.2,.8-.8,5.6,15.9-.7,.7Z"/>
    </g>
    <g class="cls-2">
      <path class="cls-1" d="M53.19,34.7l8-5.2,.6,.8-8.9,5.8-8.4-12.9,8.6-5.6,.6,.8-7.7,5,7.2,11.3Zm-4-6.1l7-4.5,.5,.8-7,4.5-.5-.8Z"/>
    </g>
    <g class="cls-2">
      <path class="cls-1" d="M65.29,28.7l-6-14.2,1-.4,5.6,13.3,8.2-3.5,.4,.9-9.2,3.9Z"/>
    </g>
    <g class="cls-2">
      <path class="cls-1" d="M83.09,22.9c-1.1,.2-2.2,.3-3.2,.1-1-.2-2-.5-2.8-1.1-.9-.5-1.6-1.2-2.2-2.1s-1-1.8-1.2-2.9-.2-2.1,0-3.1,.6-1.9,1.1-2.8c.6-.8,1.3-1.6,2.2-2.1,.9-.6,1.9-1,3-1.2s2.2-.3,3.2-.1c1,.2,2,.5,2.8,1.1,.8,.5,1.6,1.2,2.2,2.1,.6,.8,1,1.8,1.2,2.9,.2,1.1,.2,2.2,0,3.2-.2,1-.6,1.9-1.1,2.8-.6,.8-1.3,1.5-2.2,2.1-.9,.4-1.9,.8-3,1.1Zm-.2-1.1c1-.2,1.8-.6,2.6-1.1,.8-.5,1.4-1.1,1.8-1.8s.8-1.5,1-2.4,.2-1.8,0-2.7c-.2-1-.6-1.8-1.1-2.5s-1.1-1.3-1.8-1.8c-.7-.5-1.5-.8-2.4-1s-1.8-.1-2.8,.1c-1,.2-1.8,.5-2.6,1-.8,.5-1.4,1.1-1.9,1.8s-.8,1.5-1,2.4c-.2,.9-.2,1.8,0,2.7,.2,.9,.5,1.8,1.1,2.5,.5,.7,1.1,1.3,1.9,1.8,.7,.5,1.5,.8,2.4,1,.9,.3,1.8,.2,2.8,0Z"/>
    </g>
    <g class="cls-2">
      <path class="cls-1" d="M94.49,21l.2-15.4,5.5,.1c1.3,0,2.4,.2,3.3,.7,.9,.4,1.6,1,2.1,1.8,.5,.8,.7,1.7,.7,2.8s-.3,2-.8,2.8-1.2,1.4-2.2,1.7c-.9,.4-2,.6-3.3,.6l-4.9-.1,.5-.5-.1,5.6-1-.1Zm1.2-5.4l-.5-.6,4.9,.1c1.7,0,2.9-.3,3.8-1s1.3-1.7,1.3-3-.4-2.4-1.2-3.1c-.8-.7-2.1-1.1-3.8-1.1l-4.9-.1,.5-.7-.1,9.5Z"/>
    </g>
    <g class="cls-2">
      <path class="cls-1" d="M109.69,21.7l3.1-15.1,5.4,1.1c1.3,.3,2.3,.7,3.2,1.3,.8,.6,1.4,1.3,1.7,2.2,.3,.9,.4,1.8,.2,2.9-.2,1-.6,1.9-1.3,2.6-.6,.7-1.5,1.1-2.5,1.3-1,.2-2.1,.2-3.4-.1l-4.8-1,.6-.4-1.1,5.5-1.1-.3Zm2.2-5.2l-.4-.6,4.8,1c1.6,.3,2.9,.2,3.9-.3s1.6-1.5,1.9-2.7c.3-1.3,.1-2.4-.6-3.3-.7-.9-1.8-1.6-3.5-1.9l-4.8-1,.6-.4-1.9,9.2Z"/>
    </g>
    <g class="cls-2">
      <path class="cls-1" d="M125.89,24.8l8.8,3.7-.4,.9-9.8-4.1,5.9-14.3,9.5,4-.4,.9-8.5-3.5-5.1,12.4Zm2.7-6.8l7.7,3.2-.4,.9-7.7-3.2,.4-.9Z"/>
    </g>
    <g class="cls-2">
      <path class="cls-1" d="M142.59,34.6c-1.6-1.1-2.5-2.4-2.8-3.9-.3-1.5,.2-3.2,1.4-5l5-7.3,.9,.6-5,7.3c-1.1,1.6-1.5,3-1.3,4.3s1,2.3,2.3,3.2,2.6,1.2,3.9,.9,2.4-1.2,3.5-2.8l5-7.3,.9,.6-5,7.3c-1.2,1.8-2.6,2.9-4.2,3.2-1.5,.4-3,0-4.6-1.1Z"/>
    </g>
    <g class="cls-2">
      <path class="cls-1" d="M151.39,41.3l11.1-10.7,3.8,4c.9,.9,1.5,1.9,1.9,2.8,.3,1,.4,1.9,.2,2.8-.2,.9-.7,1.7-1.5,2.5-.8,.7-1.6,1.2-2.5,1.4s-1.8,.1-2.8-.3c-.9-.4-1.9-1-2.8-2l-3.4-3.5h.7l-4,3.9-.7-.9Zm4.8-3v-.7l3.4,3.5c1.1,1.2,2.3,1.9,3.4,2s2.2-.3,3.1-1.2c1-.9,1.4-1.9,1.3-3.1-.1-1.1-.7-2.3-1.8-3.5l-3.4-3.5h.7l-6.7,6.5Zm2.6,10.7l1.3-6.8,.9,.9-1.3,6.8-.9-.9Z"/>
    </g>
    <g class="cls-2">
      <path class="cls-1" d="M166.79,60.4l11.7-11.3,.5,1.1-11.2,10.8-.3-.5,15.5-1.6,.5,1-11.2,10.9-.2-.5,15.5-1.7,.5,1-16.2,1.8-.5-1.1,10.8-10.7,.1,.3-15,1.6-.5-1.1Z"/>
    </g>
    <g class="cls-2">
      <path class="cls-1" d="M175.39,79.8l1.9,9.3-1,.2-2.1-10.4,15.1-3,2,10.1-1,.2-1.8-9-13.1,2.6Zm7.2-1.6l1.6,8.2-1,.2-1.6-8.2,1-.2Z"/>
    </g>
    <g class="cls-2">
      <path class="cls-1" d="M176.59,93l15.4-.2,.1,6.4c0,1.7-.3,3-.9,3.9-.7,.9-1.6,1.4-2.9,1.5-.8,0-1.5-.2-2.1-.6s-1-.9-1.3-1.6-.5-1.5-.5-2.3l.4,.4c0,1.1-.1,2-.4,2.7-.3,.8-.7,1.3-1.3,1.7-.6,.4-1.3,.6-2.2,.6-1.3,0-2.3-.4-3-1.4s-1.1-2.3-1.1-4.3l-.2-6.8Zm1,1.1l.1,5.7c0,1.5,.3,2.6,.8,3.4s1.3,1.1,2.4,1.1,1.9-.4,2.4-1.2c.5-.8,.7-1.9,.7-3.4l-.1-5.9h1l.1,5.4c0,1.3,.3,2.4,.8,3.1s1.3,1.1,2.3,1.1,1.8-.4,2.3-1.1,.7-1.8,.7-3.1l-.1-5.3-13.4,.2Z"/>
    </g>
    <g class="cls-2">
      <path class="cls-1" d="M179.29,116.6c.1-.2,.2-.5,.3-.6,.2-.2,.4-.3,.6-.4s.5-.1,.7,0,.5,.2,.6,.3c.2,.2,.3,.4,.4,.6,.1,.2,.1,.5,0,.7s-.2,.5-.3,.6c-.2,.2-.4,.3-.6,.4s-.5,.1-.7,0c-.3-.1-.5-.2-.7-.3-.2-.2-.3-.4-.4-.6,.1-.2,.1-.5,.1-.7Z"/>
    </g>
  </g>
</svg>