<svg xmlns="http://www.w3.org/2000/svg" width="197.79" height="197.842" viewBox="0 0 197.79 197.842">
  <g id="circle" transform="translate(197.79 0) rotate(90)">
    <text id="M" transform="translate(127.852 25.987) rotate(29.51)" font-size="22" font-family="Montserrat-Light, Montserrat, sans-serif" font-weight="300"><tspan x="0" y="0">M</tspan></text>
    <text id="A" transform="translate(145.333 36.137) rotate(42.311)" font-size="22" font-family="Montserrat-Light, Montserrat, sans-serif " font-weight="300"><tspan x="0" y="0">A</tspan></text>
    <text id="T" transform="translate(155.802 45.691) rotate(51.538)" font-size="22" font-family="Montserrat-Light, Montserrat, sans-serif " font-weight="300"><tspan x="0" y="0">T</tspan></text>
    <text id="T-2" data-name="T" transform="translate(163.312 55.099) rotate(60.382)" font-size="22" font-family="Montserrat-Light, Montserrat, sans-serif " font-weight="300"><tspan x="0" y="0">T</tspan></text>
    <text id="E" transform="translate(169.27 65.278) rotate(69.957)" font-size="22" font-family="Montserrat-Light, Montserrat, sans-serif" font-weight="300"><tspan x="0" y="0">E</tspan></text>
    <text id="O" transform="translate(174.299 78.289) rotate(81.628)" font-size="22" font-family="Montserrat-Light, Montserrat, sans-serif " font-weight="300"><tspan x="0" y="0">O</tspan></text>
    <text id="C" transform="translate(176.834 102.234) rotate(97.492)" font-size="22" font-family="Montserrat-Light, Montserrat, sans-serif" font-weight="300"><tspan x="0" y="0">C</tspan></text>
    <text id="O-2" data-name="O" transform="matrix(-0.337, 0.942, -0.942, -0.337, 175.063, 116.284)" font-size="22" font-family="Montserrat-Light, Montserrat, sans-serif" font-weight="300"><tspan x="0" y="0">O</tspan></text>
    <text id="U" transform="matrix(-0.539, 0.842, -0.842, -0.539, 168.97, 133.285)" font-size="22" font-family="Montserrat-Light, Montserrat, sans-serif " font-weight="300"><tspan x="0" y="0">U</tspan></text>
    <text id="R" transform="translate(159.673 147.708) rotate(134.595)" font-size="22" font-family="Montserrat-Light, Montserrat, sans-serif " font-weight="300"><tspan x="0" y="0">R</tspan></text>
    <text id="Q" transform="translate(148.878 158.903) rotate(146.905)" font-size="22" font-family="Montserrat-Light, Montserrat, sans-serif " font-weight="300"><tspan x="0" y="0">Q</tspan></text>
    <text id="U-2" data-name="U" transform="matrix(-0.939, 0.344, -0.344, -0.939, 133.724, 168.766)" font-size="22" font-family="Montserrat-Light, Montserrat, sans-serif" font-weight="300"><tspan x="0" y="0">U</tspan></text>
    <text id="I" transform="translate(117.338 174.336) rotate(168.661)" font-size="22" font-family="Montserrat-Light, Montserrat, sans-serif " font-weight="300"><tspan x="0" y="0">I</tspan></text>
    <text id="N" transform="translate(111.151 176.033) rotate(177.527)" font-size="22" font-family="Montserrat-Light, Montserrat, sans-serif " font-weight="300"><tspan x="0" y="0">N</tspan></text>
    <text id="_" data-name="•" transform="translate(87.178 175.69) rotate(-169.198)" font-size="22" font-family="Montserrat-Light, Montserrat, sans-serif" font-weight="300"><tspan x="0" y="0">•</tspan></text>
    <text id="D" transform="matrix(-0.913, -0.407, 0.407, -0.913, 75.506, 173.498)" font-size="22" font-family="Montserrat-Light, Montserrat, sans-serif " font-weight="300"><tspan x="0" y="0">D</tspan></text>
    <text id="E-2" data-name="E" transform="translate(59.246 166.086) rotate(-144.089)" font-size="22" font-family="Montserrat-Light, Montserrat, sans-serif " font-weight="300"><tspan x="0" y="0">E</tspan></text>
    <text id="V" transform="matrix(-0.688, -0.726, 0.726, -0.688, 47.63, 157.743)" font-size="22" font-family="Montserrat-Light, Montserrat, sans-serif" font-weight="300"><tspan x="0" y="0">V</tspan></text>
    <text id="E-3" data-name="E" transform="matrix(-0.544, -0.839, 0.839, -0.544, 37.585, 147.2)" font-size="22" font-family="Montserrat-Light, Montserrat, sans-serif " font-weight="300"><tspan x="0" y="0">E</tspan></text>
    <text id="L" transform="translate(29.733 134.978) rotate(-112.927)" font-size="22" font-family="Montserrat-Light, Montserrat, sans-serif " font-weight="300"><tspan x="0" y="0">L</tspan></text>
    <text id="O-3" data-name="O" transform="translate(24.624 123.733) rotate(-101.744)" font-size="22" font-family="Montserrat-Light, Montserrat, sans-serif " font-weight="300"><tspan x="0" y="0">O</tspan></text>
    <text id="P" transform="matrix(0.016, -1, 1, 0.016, 20.997, 106.021)" font-size="22" font-family="Montserrat-Light, Montserrat, sans-serif " font-weight="300"><tspan x="0" y="0">P</tspan></text>
    <text id="P-2" data-name="P" transform="translate(21.138 90.716) rotate(-78.322)" font-size="22" font-family="Montserrat-Light, Montserrat, sans-serif " font-weight="300"><tspan x="0" y="0">P</tspan></text>
    <text id="E-4" data-name="E" transform="translate(24.227 75.783) rotate(-67.402)" font-size="22" font-family="Montserrat-Light, Montserrat, sans-serif " font-weight="300"><tspan x="0" y="0">E</tspan></text>
    <text id="U-3" data-name="U" transform="translate(29.641 62.353) rotate(-55.743)" font-size="22" font-family="Montserrat-Light, Montserrat, sans-serif " font-weight="300"><tspan x="0" y="0">U</tspan></text>
    <text id="R-2" data-name="R" transform="translate(39.321 48.232) rotate(-43.805)" font-size="22" font-family="Montserrat-Light, Montserrat, sans-serif " font-weight="300"><tspan x="0" y="0">R</tspan></text>
    <text id="W" transform="matrix(0.905, -0.425, 0.425, 0.905, 54.881, 33.604)" font-size="22" font-family="Montserrat-Light, Montserrat, sans-serif" font-weight="300"><tspan x="0" y="0">W</tspan></text>
    <text id="E-5" data-name="E" transform="translate(76.223 24.105) rotate(-11.341)" font-size="22" font-family="Montserrat-Light, Montserrat, sans-serif " font-weight="300"><tspan x="0" y="0">E</tspan></text>
    <text id="B" transform="translate(90.339 21.273) rotate(-0.928)" font-size="22" font-family="Montserrat-Light, Montserrat, sans-serif" font-weight="300"><tspan x="0" y="0">B</tspan></text>
    <text id="_2" data-name="•" transform="translate(112.597 22.299) rotate(12.44)" font-size="22" font-family="Montserrat-Light, Montserrat, sans-serif " font-weight="300"><tspan x="0" y="0">•</tspan></text>
  </g>
</svg>