<?xml version="1.0" encoding="utf-8"?>
<!-- Generator: Adobe Illustrator 26.4.1, SVG Export Plug-In . SVG Version: 6.00 Build 0)  -->
<svg version="1.1" id="Calque_1" xmlns="http://www.w3.org/2000/svg" xmlns:xlink="http://www.w3.org/1999/xlink" x="0px" y="0px"
	 viewBox="0 0 197.8 197.8" style="enable-background:new 0 0 197.8 197.8;" xml:space="preserve">
<style type="text/css">
	.st0{enable-background:new    ;}
</style>
<g id="circle" transform="translate(197.79 0) rotate(90)">
	<g class="st0">
		<path d="M130.2,27.3l7.6-13.4l0.8,0.5l0.1,14.3l-0.4-0.2l12.3-7.2l0.8,0.5L143.8,35l-1-0.5l6.7-11.9l0.3,0.2l-11.6,6.8l-0.5-0.3
			l-0.2-13.5l0.3,0.2l-6.8,11.9L130.2,27.3z"/>
	</g>
	<g class="st0">
		<path d="M145.4,36.2l15.6-6.6l0.8,0.8l-5.1,16.2l-0.9-0.8l4.9-15.4l0.4,0.3L146.3,37L145.4,36.2z M150.3,34.8l0.9-0.4l6.8,6.2
			l-0.4,1L150.3,34.8z"/>
	</g>
	<g class="st0">
		<path d="M159.3,50.1l11.3-8.9l-3.4-4.3l0.8-0.6l7.6,9.6l-0.8,0.6l-3.4-4.3L160,51L159.3,50.1z"/>
	</g>
	<g class="st0">
		<path d="M166.1,60l12.5-7.1l-2.7-4.8l0.9-0.5l6,10.6l-0.9,0.5l-2.7-4.8L166.7,61L166.1,60z"/>
	</g>
	<g class="st0">
		<path d="M171.5,68.5l3.3,8.9l-0.9,0.3l-3.6-10l14.5-5.3l3.5,9.7l-1,0.3l-3.1-8.6L171.5,68.5z M178.3,65.9l2.9,7.8l-0.9,0.3
			l-2.9-7.8L178.3,65.9z"/>
	</g>
	<g class="st0">
		<path d="M175.5,87.4c-0.2-1.1-0.1-2.2,0.1-3.2c0.2-1,0.7-1.9,1.3-2.8s1.3-1.5,2.2-2c0.9-0.5,1.9-0.9,3-1c1.1-0.2,2.2-0.1,3.1,0.1
			c1,0.3,1.9,0.7,2.7,1.3c0.8,0.6,1.5,1.4,2,2.3c0.5,0.9,0.9,1.9,1,3.1s0.1,2.2-0.1,3.2c-0.2,1-0.7,1.9-1.3,2.8
			c-0.6,0.8-1.3,1.5-2.2,2c-0.9,0.5-1.9,0.9-3,1.1c-1.1,0.2-2.2,0.1-3.2-0.1c-1-0.3-1.9-0.7-2.7-1.3c-0.8-0.6-1.5-1.4-2-2.3
			C176,89.6,175.7,88.6,175.5,87.4z M176.6,87.3c0.1,1,0.4,1.8,0.9,2.6c0.5,0.8,1,1.4,1.7,1.9c0.7,0.5,1.5,0.9,2.3,1.1
			c0.9,0.2,1.8,0.3,2.7,0.1c1-0.1,1.8-0.4,2.6-0.9c0.8-0.5,1.4-1,1.9-1.7s0.9-1.5,1.1-2.4c0.2-0.9,0.2-1.8,0.1-2.8s-0.4-1.8-0.9-2.6
			c-0.5-0.8-1-1.4-1.7-2c-0.7-0.5-1.5-0.9-2.3-1.1c-0.9-0.2-1.8-0.3-2.7-0.1c-1,0.1-1.8,0.4-2.6,0.9c-0.8,0.5-1.4,1-1.9,1.8
			c-0.5,0.7-0.9,1.5-1.1,2.4C176.4,85.4,176.4,86.3,176.6,87.3z"/>
	</g>
	<g class="st0">
		<path d="M175.5,111.3c0.1-1.1,0.5-2.2,1-3.1c0.5-0.9,1.2-1.7,2-2.3c0.8-0.6,1.7-1.1,2.7-1.3c1-0.3,2-0.3,3.2-0.2
			c1.1,0.1,2.1,0.5,3,1c0.9,0.5,1.6,1.2,2.2,2c0.6,0.8,1,1.7,1.3,2.7s0.3,2.1,0.2,3.2c-0.1,1.1-0.4,2.1-0.9,3
			c-0.5,0.9-1.1,1.6-1.9,2.2l-0.6-0.8c0.7-0.6,1.3-1.2,1.7-2c0.4-0.8,0.6-1.6,0.8-2.5c0.1-1,0.1-1.9-0.1-2.8
			c-0.2-0.9-0.6-1.7-1.1-2.4c-0.5-0.7-1.2-1.3-1.9-1.7c-0.8-0.4-1.6-0.7-2.6-0.9c-1-0.1-1.9-0.1-2.7,0.2c-0.9,0.2-1.6,0.6-2.3,1.2
			c-0.7,0.5-1.3,1.2-1.7,2c-0.4,0.8-0.7,1.7-0.9,2.6c-0.1,0.9-0.1,1.7,0.1,2.6s0.6,1.6,1.1,2.4L177,117c-0.6-0.8-1.1-1.6-1.3-2.6
			C175.4,113.4,175.4,112.4,175.5,111.3z"/>
	</g>
	<g class="st0">
		<path d="M171.9,124.9c0.4-1.1,0.9-2,1.6-2.8c0.7-0.8,1.5-1.4,2.4-1.8c0.9-0.4,1.9-0.7,2.9-0.7c1-0.1,2.1,0.1,3.1,0.5
			s2,0.9,2.7,1.6c0.8,0.7,1.3,1.5,1.8,2.4c0.4,0.9,0.7,1.9,0.7,3c0,1-0.1,2.1-0.5,3.2c-0.4,1.1-0.9,2-1.6,2.8
			c-0.7,0.8-1.5,1.4-2.4,1.8c-0.9,0.4-1.9,0.7-2.9,0.8c-1,0.1-2.1-0.1-3.1-0.5c-1.1-0.4-2-0.9-2.7-1.6c-0.8-0.7-1.3-1.5-1.8-2.4
			c-0.4-0.9-0.6-1.9-0.7-2.9C171.3,127.1,171.5,126,171.9,124.9z M172.8,125.3c-0.3,0.9-0.5,1.8-0.4,2.7c0,0.9,0.2,1.7,0.6,2.5
			c0.4,0.8,0.9,1.5,1.5,2.1c0.7,0.6,1.4,1.1,2.4,1.4c0.9,0.3,1.8,0.5,2.7,0.4c0.9-0.1,1.7-0.3,2.5-0.6c0.8-0.4,1.5-0.9,2.1-1.6
			s1.1-1.5,1.4-2.4c0.3-0.9,0.5-1.8,0.4-2.7c0-0.9-0.2-1.7-0.6-2.5c-0.4-0.8-0.9-1.5-1.5-2.1c-0.7-0.6-1.4-1.1-2.4-1.4
			c-0.9-0.3-1.8-0.5-2.7-0.4c-0.9,0-1.7,0.3-2.5,0.6c-0.8,0.4-1.5,0.9-2.1,1.6C173.6,123.6,173.2,124.4,172.8,125.3z"/>
	</g>
	<g class="st0">
		<path d="M164.2,140.6c1-1.6,2.3-2.6,3.8-2.9c1.5-0.3,3.2,0.1,5.1,1.3l7.5,4.8l-0.6,0.9l-7.4-4.8c-1.6-1-3.1-1.4-4.3-1.2
			c-1.3,0.2-2.3,1-3.2,2.4c-0.9,1.3-1.1,2.6-0.8,3.9c0.3,1.2,1.3,2.4,2.9,3.4l7.4,4.8l-0.6,0.9l-7.5-4.8c-1.9-1.2-3-2.5-3.3-4.1
			S163.1,142.2,164.2,140.6z"/>
	</g>
	<g class="st0">
		<path d="M157.8,149.6l11,10.8l-3.9,3.9c-0.9,0.9-1.8,1.6-2.8,1.9c-0.9,0.4-1.9,0.5-2.8,0.3c-0.9-0.2-1.7-0.7-2.5-1.4
			c-0.8-0.8-1.2-1.6-1.4-2.5c-0.2-0.9-0.1-1.8,0.2-2.8c0.4-1,1-1.9,1.9-2.8l3.4-3.5l0,0.7l-4-3.9L157.8,149.6z M160.9,154.3l0.7,0
			l-3.4,3.5c-1.2,1.2-1.8,2.3-1.9,3.5c-0.1,1.1,0.3,2.2,1.3,3.1c1,0.9,2,1.4,3.1,1.3s2.3-0.7,3.4-1.9l3.4-3.5l0,0.7L160.9,154.3z
			 M150.3,157.2l6.8,1.1l-0.9,0.9l-6.8-1.1L150.3,157.2z"/>
	</g>
	<g class="st0">
		<path d="M141.1,163.8c1-0.6,2-1,3-1.2s2-0.2,3,0c1,0.2,1.9,0.6,2.8,1.2c0.8,0.6,1.6,1.3,2.2,2.3c0.6,0.9,1,1.9,1.2,2.9
			c0.2,1,0.2,2-0.1,3s-0.6,1.9-1.2,2.8c-0.6,0.9-1.4,1.6-2.3,2.2c-1,0.6-2,1-3,1.2c-1,0.2-2,0.2-3,0c-1-0.2-1.9-0.6-2.8-1.2
			c-0.9-0.6-1.6-1.3-2.2-2.3c-0.6-0.9-1-1.9-1.2-2.9c-0.2-1-0.2-2,0.1-3c0.2-1,0.6-1.9,1.2-2.8C139.4,165.2,140.1,164.5,141.1,163.8
			z M141.7,164.7c-0.8,0.5-1.5,1.2-2,1.9c-0.5,0.7-0.9,1.5-1,2.4c-0.2,0.9-0.2,1.7,0,2.6c0.2,0.9,0.5,1.7,1,2.5
			c0.5,0.8,1.2,1.5,1.9,2c0.7,0.5,1.5,0.8,2.4,1s1.7,0.2,2.6,0c0.9-0.2,1.7-0.5,2.6-1.1c0.8-0.5,1.5-1.2,2-1.9
			c0.5-0.7,0.9-1.5,1.1-2.4s0.2-1.7,0-2.6c-0.2-0.9-0.5-1.7-1-2.5s-1.2-1.5-1.9-2c-0.7-0.5-1.5-0.8-2.4-1c-0.9-0.2-1.7-0.2-2.6,0
			C143.3,163.8,142.5,164.2,141.7,164.7z M135.3,164.2c0.4-0.2,0.8-0.4,1.2-0.6c0.4-0.1,0.9-0.2,1.4-0.2c0.5,0,1,0,1.6,0.1
			c0.6,0.1,1.2,0.2,2,0.4l-0.9,1c-0.7-0.2-1.3-0.3-1.9-0.4c-0.6-0.1-1.1,0-1.6,0.1c-0.5,0.1-0.9,0.3-1.2,0.5c-1,0.7-1.6,1.6-1.7,2.9
			l-0.9-0.2C133.4,166.2,134.1,165.1,135.3,164.2z"/>
	</g>
	<g class="st0">
		<path d="M125.5,171.7c1.8-0.7,3.4-0.6,4.8,0s2.5,2,3.3,4.1l3.1,8.3l-1.1,0.4l-3-8.3c-0.7-1.8-1.6-3-2.7-3.6c-1.1-0.6-2.5-0.6-4,0
			c-1.5,0.5-2.5,1.4-3,2.6c-0.5,1.2-0.4,2.7,0.2,4.5l3,8.3l-1.1,0.4l-3-8.3c-0.8-2.1-0.8-3.8-0.2-5.2
			C122.5,173.4,123.7,172.3,125.5,171.7z"/>
	</g>
	<g class="st0">
		<path d="M114.7,174.9l3,15.1l-1.1,0.2l-3-15.1L114.7,174.9z"/>
	</g>
	<g class="st0">
		<path d="M108.5,176.1l0.7,15.4l-0.9,0L96.6,178l0.5,0l0.6,14l-1.1,0l-0.7-15.4l0.9,0l11.6,13.5l-0.5,0l-0.6-14L108.5,176.1z"/>
	</g>
	<g class="st0">
		<path d="M83.3,179.6c0.2,0,0.5,0.1,0.6,0.3c0.2,0.2,0.3,0.3,0.4,0.6c0.1,0.2,0.1,0.5,0,0.7c0,0.2-0.2,0.5-0.3,0.6
			c-0.2,0.2-0.4,0.3-0.6,0.4c-0.2,0.1-0.5,0.1-0.7,0c-0.2,0-0.5-0.1-0.6-0.3c-0.2-0.2-0.3-0.3-0.4-0.6c-0.1-0.2-0.1-0.5-0.1-0.7
			c0-0.3,0.2-0.5,0.3-0.7c0.2-0.2,0.4-0.3,0.6-0.4C82.8,179.6,83,179.6,83.3,179.6z"/>
	</g>
	<g class="st0">
		<path d="M73.1,172.4l-6.3,14.1l-5.6-2.5c-1.5-0.7-2.7-1.5-3.5-2.7c-0.9-1.1-1.4-2.3-1.5-3.7c-0.2-1.3,0.1-2.7,0.7-4.1
			c0.6-1.4,1.5-2.4,2.6-3.2c1.1-0.8,2.3-1.2,3.7-1.3c1.4-0.1,2.8,0.2,4.3,0.8L73.1,172.4z M71.6,172.9l-4.5-2
			c-1.3-0.6-2.6-0.8-3.8-0.8c-1.2,0.1-2.3,0.5-3.2,1.1c-0.9,0.7-1.7,1.6-2.2,2.8c-0.5,1.2-0.7,2.4-0.6,3.5c0.1,1.2,0.6,2.2,1.3,3.2
			c0.7,1,1.8,1.7,3.1,2.3l4.5,2L71.6,172.9z"/>
	</g>
	<g class="st0">
		<path d="M55.6,164.7l-7.7-5.6l0.6-0.8l8.6,6.2L48,177l-8.3-6l0.6-0.8l7.4,5.4L55.6,164.7z M51.4,170.7l-6.8-4.9l0.6-0.8l6.8,4.9
			L51.4,170.7z"/>
	</g>
	<g class="st0">
		<path d="M42.8,152.7l-6.5,15.6l-0.8-0.9l6.2-14.9l0.5,0.5l-15.2,5.4l-0.8-0.8l15.9-5.6L42.8,152.7z"/>
	</g>
	<g class="st0">
		<path d="M34.7,144.6l-5.2-8l0.8-0.6l5.8,8.9l-12.9,8.4l-5.6-8.6l0.8-0.6l5,7.7L34.7,144.6z M28.6,148.6l-4.5-7l0.8-0.5l4.5,7
			L28.6,148.6z"/>
	</g>
	<g class="st0">
		<path d="M28.7,132.5l-14.2,6l-0.4-1l13.3-5.6l-3.5-8.2l0.9-0.4L28.7,132.5z"/>
	</g>
	<g class="st0">
		<path d="M22.9,114.7c0.2,1.1,0.3,2.2,0.1,3.2c-0.2,1-0.5,2-1.1,2.8c-0.5,0.9-1.2,1.6-2.1,2.2s-1.8,1-2.9,1.2
			c-1.1,0.2-2.1,0.2-3.1,0c-1-0.2-1.9-0.6-2.8-1.1c-0.8-0.6-1.6-1.3-2.1-2.2c-0.6-0.9-1-1.9-1.2-3c-0.2-1.1-0.3-2.2-0.1-3.2
			c0.2-1,0.5-2,1.1-2.8c0.5-0.8,1.2-1.6,2.1-2.2c0.8-0.6,1.8-1,2.9-1.2c1.1-0.2,2.2-0.2,3.2,0c1,0.2,1.9,0.6,2.8,1.1
			c0.8,0.6,1.5,1.3,2.1,2.2C22.2,112.6,22.6,113.6,22.9,114.7z M21.8,114.9c-0.2-1-0.6-1.8-1.1-2.6c-0.5-0.8-1.1-1.4-1.8-1.8
			s-1.5-0.8-2.4-1c-0.9-0.2-1.8-0.2-2.7,0c-1,0.2-1.8,0.6-2.5,1.1s-1.3,1.1-1.8,1.8c-0.5,0.7-0.8,1.5-1,2.4
			c-0.2,0.9-0.1,1.8,0.1,2.8c0.2,1,0.5,1.8,1,2.6c0.5,0.8,1.1,1.4,1.8,1.9c0.7,0.5,1.5,0.8,2.4,1c0.9,0.2,1.8,0.2,2.7,0
			c0.9-0.2,1.8-0.5,2.5-1.1c0.7-0.5,1.3-1.1,1.8-1.9c0.5-0.7,0.8-1.5,1-2.4C22.1,116.8,22,115.9,21.8,114.9z"/>
	</g>
	<g class="st0">
		<path d="M21,103.3l-15.4-0.2l0.1-5.5c0-1.3,0.2-2.4,0.7-3.3c0.4-0.9,1-1.6,1.8-2.1c0.8-0.5,1.7-0.7,2.8-0.7c1.1,0,2,0.3,2.8,0.8
			c0.8,0.5,1.4,1.2,1.7,2.2c0.4,0.9,0.6,2,0.6,3.3l-0.1,4.9l-0.5-0.5l5.6,0.1L21,103.3z M15.6,102.1l-0.6,0.5l0.1-4.9
			c0-1.7-0.3-2.9-1-3.8c-0.7-0.9-1.7-1.3-3-1.3c-1.3,0-2.4,0.4-3.1,1.2c-0.7,0.8-1.1,2.1-1.1,3.8l-0.1,4.9L6.1,102L15.6,102.1z"/>
	</g>
	<g class="st0">
		<path d="M21.7,88.1L6.6,85l1.1-5.4C8,78.3,8.4,77.3,9,76.4c0.6-0.8,1.3-1.4,2.2-1.7c0.9-0.3,1.8-0.4,2.9-0.2
			c1,0.2,1.9,0.6,2.6,1.3c0.7,0.6,1.1,1.5,1.3,2.5c0.2,1,0.2,2.1-0.1,3.4l-1,4.8l-0.4-0.6l5.5,1.1L21.7,88.1z M16.5,85.9l-0.6,0.4
			l1-4.8c0.3-1.6,0.2-2.9-0.3-3.9c-0.5-1-1.5-1.6-2.7-1.9c-1.3-0.3-2.4-0.1-3.3,0.6C9.7,77,9,78.1,8.7,79.8l-1,4.8L7.3,84L16.5,85.9
			z"/>
	</g>
	<g class="st0">
		<path d="M24.8,71.9l3.7-8.8l0.9,0.4l-4.1,9.8L11,67.4l4-9.5l0.9,0.4l-3.5,8.5L24.8,71.9z M18,69.2l3.2-7.7l0.9,0.4l-3.2,7.7
			L18,69.2z"/>
	</g>
	<g class="st0">
		<path d="M34.6,55.2c-1.1,1.6-2.4,2.5-3.9,2.8c-1.5,0.3-3.2-0.2-5-1.4l-7.3-5l0.6-0.9l7.3,5c1.6,1.1,3,1.5,4.3,1.3
			c1.3-0.2,2.3-1,3.2-2.3c0.9-1.3,1.2-2.6,0.9-3.9s-1.2-2.4-2.8-3.5l-7.3-5l0.6-0.9l7.3,5c1.8,1.2,2.9,2.6,3.2,4.2
			C36.1,52.1,35.7,53.6,34.6,55.2z"/>
	</g>
	<g class="st0">
		<path d="M41.3,46.4L30.6,35.3l4-3.8c0.9-0.9,1.9-1.5,2.8-1.9c1-0.3,1.9-0.4,2.8-0.2c0.9,0.2,1.7,0.7,2.5,1.5
			c0.7,0.8,1.2,1.6,1.4,2.5c0.2,0.9,0.1,1.8-0.3,2.8c-0.4,0.9-1,1.9-2,2.8l-3.5,3.4l0-0.7l3.9,4L41.3,46.4z M38.3,41.6l-0.7,0
			l3.5-3.4c1.2-1.1,1.9-2.3,2-3.4s-0.3-2.2-1.2-3.1c-0.9-1-1.9-1.4-3.1-1.3c-1.1,0.1-2.3,0.7-3.5,1.8l-3.5,3.4l0-0.7L38.3,41.6z
			 M49,39l-6.8-1.3l0.9-0.9l6.8,1.3L49,39z"/>
	</g>
	<g class="st0">
		<path d="M60.4,31L49.1,19.3l1.1-0.5L61,30l-0.5,0.3l-1.6-15.5l1-0.5l10.9,11.2l-0.5,0.2l-1.7-15.5l1-0.5l1.8,16.2l-1.1,0.5
			L59.6,15.6l0.3-0.1l1.6,15L60.4,31z"/>
	</g>
	<g class="st0">
		<path d="M79.8,22.4l9.3-1.9l0.2,1l-10.4,2.1l-3-15.1l10.1-2l0.2,1l-9,1.8L79.8,22.4z M78.2,15.2l8.2-1.6l0.2,1l-8.2,1.6L78.2,15.2
			z"/>
	</g>
	<g class="st0">
		<path d="M93,21.2L92.8,5.8l6.4-0.1c1.7,0,3,0.3,3.9,0.9c0.9,0.7,1.4,1.6,1.5,2.9c0,0.8-0.2,1.5-0.6,2.1c-0.4,0.6-0.9,1-1.6,1.3
			c-0.7,0.3-1.5,0.5-2.3,0.5l0.4-0.4c1.1,0,2,0.1,2.7,0.4c0.8,0.3,1.3,0.7,1.7,1.3c0.4,0.6,0.6,1.3,0.6,2.2c0,1.3-0.4,2.3-1.4,3
			s-2.3,1.1-4.3,1.1L93,21.2z M94.1,20.2l5.7-0.1c1.5,0,2.6-0.3,3.4-0.8c0.8-0.5,1.1-1.3,1.1-2.4c0-1.1-0.4-1.9-1.2-2.4
			c-0.8-0.5-1.9-0.7-3.4-0.7l-5.9,0.1l0-1l5.4-0.1c1.3,0,2.4-0.3,3.1-0.8c0.7-0.5,1.1-1.3,1.1-2.3c0-1-0.4-1.8-1.1-2.3
			c-0.7-0.5-1.8-0.7-3.1-0.7l-5.3,0.1L94.1,20.2z"/>
	</g>
	<g class="st0">
		<path d="M116.6,18.5c-0.2-0.1-0.5-0.2-0.6-0.3c-0.2-0.2-0.3-0.4-0.4-0.6c-0.1-0.2-0.1-0.5,0-0.7c0.1-0.2,0.2-0.5,0.3-0.6
			c0.2-0.2,0.4-0.3,0.6-0.4c0.2-0.1,0.5-0.1,0.7,0c0.2,0.1,0.5,0.2,0.6,0.3c0.2,0.2,0.3,0.4,0.4,0.6c0.1,0.2,0.1,0.5,0,0.7
			c-0.1,0.3-0.2,0.5-0.3,0.7c-0.2,0.2-0.4,0.3-0.6,0.4C117.1,18.5,116.8,18.5,116.6,18.5z"/>
	</g>
</g>
</svg>
